<svg xmlns="http://www.w3.org/2000/svg" width="77.878" height="64.776" viewBox="0 0 77.878 64.776">
  <g id="Group_3" data-name="Group 3" transform="translate(-595 -654.5)">
    <path id="Path_10" data-name="Path 10" d="M2715.01,447.222l-.016,61.843" transform="translate(-2086.902 208.756)" fill="none" stroke="#cdb389" stroke-width="2"/>
    <path id="Path_6" data-name="Path 6" d="M2681,511h77.878" transform="translate(-2086 207.276)" fill="none" stroke="#cdb389" stroke-width="2"/>
    <path id="Path_7" data-name="Path 7" d="M2696,509.276V460.6l19.47-14.6v63.276" transform="translate(-2086.398 209)" fill="none" stroke="#cdb389" stroke-linejoin="round" stroke-width="1"/>
    <path id="Path_8" data-name="Path 8" d="M2716,446l29.2,24.337v38.939" transform="translate(-2086.929 209)" fill="none" stroke="#cdb389" stroke-linejoin="round" stroke-width="1"/>
    <path id="Path_11" data-name="Path 11" d="M2721,453.5v12.781" transform="translate(-2082.141 212.087)" fill="none" stroke="#cdb389" stroke-width="1"/>
    <path id="Path_12" data-name="Path 12" d="M2726,457.574v13.739" transform="translate(-2082.273 211.918)" fill="none" stroke="#cdb389" stroke-width="1"/>
    <path id="Path_13" data-name="Path 13" d="M2731,461v14.6" transform="translate(-2082.406 212.496)" fill="none" stroke="#cdb389" stroke-width="1"/>
    <g id="Path_16" data-name="Path 16" transform="translate(635.939 678.364)" fill="rgba(255,255,255,0)">
      <path d="M 2.920435905456543 3.630114078521729 C 1.442895889282227 3.630114078521729 0.4999959170818329 3.209794044494629 0.4999959170818329 2.92043399810791 C 0.4999959170818329 1.585803985595703 1.585795879364014 0.5000040531158447 2.920435905456543 0.5000040531158447 C 4.255075931549072 0.5000040531158447 5.34087610244751 1.585803985595703 5.34087610244751 2.92043399810791 C 5.34087610244751 3.209794044494629 4.397975921630859 3.630114078521729 2.920435905456543 3.630114078521729 Z" stroke="none"/>
      <path d="M 2.920435905456543 1.000004053115845 C 1.910496950149536 1.000004053115845 1.080132007598877 1.783659934997559 1.005460739135742 2.774820327758789 C 1.241142272949219 2.921585559844971 1.919746398925781 3.130114078521729 2.920435905456543 3.130114078521729 C 3.921125411987305 3.130114078521729 4.599729537963867 2.921585559844971 4.835411071777344 2.774820327758789 C 4.760739803314209 1.783659934997559 3.93037486076355 1.000004053115845 2.920435905456543 1.000004053115845 M 2.920435905456543 3.814697265625e-06 C 4.533346176147461 3.814697265625e-06 5.84087610244751 1.307523965835571 5.84087610244751 2.92043399810791 C 5.84087610244751 4.53334379196167 -4.291534423828125e-06 4.533344268798828 -4.291534423828125e-06 2.92043399810791 C -4.291534423828125e-06 1.307523965835571 1.307526111602783 3.814697265625e-06 2.920435905456543 3.814697265625e-06 Z" stroke="none" fill="#cdb389"/>
    </g>
    <g id="Path_25" data-name="Path 25" transform="translate(614.002 698.807)" fill="none">
      <path d="M2.92,0a2.92,2.92,0,0,1,2.92,2.92C5.841,4.533,0,4.533,0,2.92A2.92,2.92,0,0,1,2.92,0Z" stroke="none"/>
      <path d="M 2.920435905456543 1.000004053115845 C 1.910496950149536 1.000004053115845 1.080132007598877 1.783659934997559 1.005460739135742 2.774820327758789 C 1.241142272949219 2.921585559844971 1.919746398925781 3.130114078521729 2.920435905456543 3.130114078521729 C 3.921125411987305 3.130114078521729 4.599729537963867 2.921585559844971 4.835411071777344 2.774820327758789 C 4.760739803314209 1.783659934997559 3.93037486076355 1.000004053115845 2.920435905456543 1.000004053115845 M 2.920435905456543 3.814697265625e-06 C 4.533346176147461 3.814697265625e-06 5.84087610244751 1.307523965835571 5.84087610244751 2.92043399810791 C 5.84087610244751 4.53334379196167 -4.291534423828125e-06 4.533344268798828 -4.291534423828125e-06 2.92043399810791 C -4.291534423828125e-06 1.307523965835571 1.307526111602783 3.814697265625e-06 2.920435905456543 3.814697265625e-06 Z" stroke="none" fill="#cdb389"/>
    </g>
    <g id="Path_15" data-name="Path 15" transform="translate(640.806 683.231)" fill="rgba(255,255,255,0)">
      <path d="M 2.920435905456543 3.630114078521729 C 1.442895889282227 3.630114078521729 0.4999959170818329 3.209794044494629 0.4999959170818329 2.92043399810791 C 0.4999959170818329 1.585803985595703 1.585795879364014 0.5000040531158447 2.920435905456543 0.5000040531158447 C 4.255075931549072 0.5000040531158447 5.34087610244751 1.585803985595703 5.34087610244751 2.92043399810791 C 5.34087610244751 3.209794044494629 4.397975921630859 3.630114078521729 2.920435905456543 3.630114078521729 Z" stroke="none"/>
      <path d="M 2.920435905456543 1.000004053115845 C 1.910496950149536 1.000004053115845 1.080132007598877 1.783659934997559 1.005460739135742 2.774820327758789 C 1.241142272949219 2.921585559844971 1.919746398925781 3.130114078521729 2.920435905456543 3.130114078521729 C 3.921125411987305 3.130114078521729 4.599729537963867 2.921585559844971 4.835411071777344 2.774820327758789 C 4.760739803314209 1.783659934997559 3.93037486076355 1.000004053115845 2.920435905456543 1.000004053115845 M 2.920435905456543 3.814697265625e-06 C 4.533346176147461 3.814697265625e-06 5.84087610244751 1.307523965835571 5.84087610244751 2.92043399810791 C 5.84087610244751 4.53334379196167 -4.291534423828125e-06 4.533344268798828 -4.291534423828125e-06 2.92043399810791 C -4.291534423828125e-06 1.307523965835571 1.307526111602783 3.814697265625e-06 2.920435905456543 3.814697265625e-06 Z" stroke="none" fill="#cdb389"/>
    </g>
    <g id="Path_14" data-name="Path 14" transform="translate(645.673 688.098)" fill="rgba(255,255,255,0)">
      <path d="M 2.920435905456543 3.630114078521729 C 1.442895889282227 3.630114078521729 0.4999959170818329 3.209794044494629 0.4999959170818329 2.92043399810791 C 0.4999959170818329 1.585803985595703 1.585795879364014 0.5000040531158447 2.920435905456543 0.5000040531158447 C 4.255075931549072 0.5000040531158447 5.34087610244751 1.585803985595703 5.34087610244751 2.92043399810791 C 5.34087610244751 3.209794044494629 4.397975921630859 3.630114078521729 2.920435905456543 3.630114078521729 Z" stroke="none"/>
      <path d="M 2.920435905456543 1.000004053115845 C 1.910496950149536 1.000004053115845 1.080132007598877 1.783659934997559 1.005460739135742 2.774820327758789 C 1.241142272949219 2.921585559844971 1.919746398925781 3.130114078521729 2.920435905456543 3.130114078521729 C 3.921125411987305 3.130114078521729 4.599729537963867 2.921585559844971 4.835411071777344 2.774820327758789 C 4.760739803314209 1.783659934997559 3.93037486076355 1.000004053115845 2.920435905456543 1.000004053115845 M 2.920435905456543 3.814697265625e-06 C 4.533346176147461 3.814697265625e-06 5.84087610244751 1.307523965835571 5.84087610244751 2.92043399810791 C 5.84087610244751 4.53334379196167 -4.291534423828125e-06 4.533344268798828 -4.291534423828125e-06 2.92043399810791 C -4.291534423828125e-06 1.307523965835571 1.307526111602783 3.814697265625e-06 2.920435905456543 3.814697265625e-06 Z" stroke="none" fill="#cdb389"/>
    </g>
    <path id="Path_9" data-name="Path 9" d="M0-.041V-.567L25.426,20.657l1.065.869v.5" transform="translate(630.481 658.68)" fill="none" stroke="#cdb389" stroke-linecap="square" stroke-width="2"/>
    <path id="Path_17" data-name="Path 17" d="M2721,496v14.6" transform="translate(-2087.061 207.674)" fill="none" stroke="#cdb389" stroke-width="1"/>
    <path id="Path_20" data-name="Path 20" d="M2721,503.016h0v7.772" transform="translate(-2072.459 207.488)" fill="none" stroke="#cdb389" stroke-width="1"/>
    <path id="Path_18" data-name="Path 18" d="M2721,503.5h6.875v7.3" transform="translate(-2087.061 207.475)" fill="none" stroke="#cdb389" stroke-width="1"/>
    <path id="Path_19" data-name="Path 19" d="M2721,503.5h6.875v7.3" transform="translate(-2072.459 207.475)" fill="none" stroke="#cdb389" stroke-width="1"/>
    <path id="Path_21" data-name="Path 21" d="M2743.063,503.3V496" transform="translate(-2087.646 207.674)" fill="none" stroke="#cdb389" stroke-width="1"/>
    <path id="Path_22" data-name="Path 22" d="M2731.943,510.706V499.929" transform="translate(-2087.351 207.57)" fill="none" stroke="#cdb389" stroke-width="2"/>
    <path id="Path_23" data-name="Path 23" d="M2724.531,499.929h12.942" transform="translate(-2086.411 207.57)" fill="none" stroke="#cdb389" stroke-width="2"/>
    <path id="Path_24" data-name="Path 24" d="M2708.291,510.407V489.856l-3.312-1.219-3.663,2.63" transform="translate(-2084.086 207.869)" fill="none" stroke="#cdb389" stroke-linecap="round" stroke-linejoin="round" stroke-width="1"/>
  </g>
</svg>
